<svg width="30" height="25" viewBox="0 0 30 25" fill="none" xmlns="http://www.w3.org/2000/svg">
<path fill-rule="evenodd" clip-rule="evenodd" d="M27.5913 3.98944C25.4015 1.56655 21.9203 0 18 0H12C5.37258 0 0 4.47715 0 10V15C0 20.5228 5.37258 25 12 25H18C24.6274 25 30 20.5228 30 15V10C30 8.67242 29.6896 7.40527 29.1259 6.2462L15.3107 17.7589C14.7249 18.247 13.7751 18.247 13.1893 17.7589L6.43934 12.1339C5.85355 11.6457 5.85355 10.8543 6.43934 10.3661C7.02513 9.87796 7.97487 9.87796 8.56066 10.3661L14.25 15.1072L27.5913 3.98944Z" fill="#228BE6"/>
</svg>
