<svg width="160" height="32" viewBox="0 0 160 32" fill="none" xmlns="http://www.w3.org/2000/svg">
<path fill-rule="evenodd" clip-rule="evenodd" d="M29.6159 5.10649C27.2653 2.00519 23.5287 0 19.3208 0H12.8805C5.7668 0 0 5.73075 0 12.8V19.2C0 26.2692 5.7668 32 12.8805 32H19.3208C26.4345 32 32.2013 26.2692 32.2013 19.2V12.8C32.2013 11.1007 31.868 9.47875 31.263 7.99514L16.4341 22.7314C15.8053 23.3562 14.7859 23.3562 14.1571 22.7314L6.91183 15.5314C6.28306 14.9065 6.28306 13.8935 6.91183 13.2686C7.5406 12.6438 8.56003 12.6438 9.1888 13.2686L15.2956 19.3373L29.6159 5.10649Z" fill="#228BE6"/>
<path d="M36.2013 28V4.72729H51.7014V8.78411H41.1508V14.3296H50.6726V18.3864H41.1508V28H36.2013Z" fill="#228BE6"/>
<path d="M59.1544 28.2841C57.8209 28.2841 56.613 27.9432 55.5309 27.2614C54.4564 26.572 53.6029 25.5606 52.9704 24.2273C52.3455 22.8864 52.0331 21.2424 52.0331 19.2955C52.0331 17.2955 52.357 15.6326 53.0047 14.3068C53.6524 12.9735 54.5136 11.9773 55.588 11.3182C56.6702 10.6515 57.8551 10.3182 59.143 10.3182C60.126 10.3182 60.9453 10.4849 61.6006 10.8182C62.2636 11.144 62.797 11.5531 63.2009 12.0455C63.6124 12.5303 63.9249 13.0076 64.1382 13.4773H64.2868V10.5455H69.1449V28H64.344V25.2046H64.1382C63.9096 25.6894 63.5857 26.1705 63.1666 26.6478C62.7551 27.1174 62.2179 27.5076 61.5549 27.8182C60.8995 28.1288 60.0994 28.2841 59.1544 28.2841ZM60.6976 24.4318C61.4825 24.4318 62.1455 24.2197 62.6865 23.7955C63.2352 23.3637 63.6543 22.7614 63.9439 21.9887C64.2411 21.2159 64.3897 20.3106 64.3897 19.2727C64.3897 18.2349 64.2449 17.3334 63.9553 16.5682C63.6658 15.8031 63.2466 15.2121 62.698 14.7955C62.1493 14.3788 61.4825 14.1705 60.6976 14.1705C59.8974 14.1705 59.223 14.3864 58.6743 14.8182C58.1257 15.25 57.7104 15.8485 57.4284 16.6137C57.1464 17.3788 57.0055 18.2652 57.0055 19.2727C57.0055 20.2879 57.1464 21.1856 57.4284 21.9659C57.718 22.7387 58.1333 23.3447 58.6743 23.7841C59.223 24.2159 59.8974 24.4318 60.6976 24.4318Z" fill="#228BE6"/>
<path d="M86.7913 15.5227L82.3333 15.7955C82.2571 15.4167 82.0933 15.0758 81.8418 14.7727C81.5903 14.4621 81.2588 14.2159 80.8473 14.0341C80.4435 13.8447 79.9596 13.75 79.3956 13.75C78.6412 13.75 78.0049 13.9091 77.4867 14.2273C76.9685 14.5379 76.7094 14.9546 76.7094 15.4773C76.7094 15.894 76.8771 16.2462 77.2124 16.5341C77.5477 16.822 78.123 17.0531 78.9384 17.2273L82.1162 17.8637C83.8231 18.2121 85.0958 18.7727 85.934 19.5455C86.7723 20.3182 87.1914 21.3334 87.1914 22.5909C87.1914 23.7349 86.8523 24.7387 86.1741 25.6023C85.5035 26.4659 84.5814 27.1402 83.4078 27.625C82.2419 28.1023 80.8969 28.3409 79.3728 28.3409C77.0485 28.3409 75.1968 27.8599 73.8174 26.8978C72.4458 25.9281 71.6418 24.6099 71.4056 22.9432L76.195 22.6932C76.3398 23.3978 76.6904 23.9356 77.2467 24.3068C77.803 24.6705 78.5155 24.8523 79.3842 24.8523C80.2377 24.8523 80.9235 24.6894 81.4417 24.3637C81.9676 24.0303 82.2343 23.6023 82.2419 23.0796C82.2343 22.6402 82.0476 22.2803 81.6818 22C81.316 21.7121 80.7521 21.4924 79.99 21.3409L76.9495 20.7387C75.2349 20.3977 73.9584 19.8068 73.1202 18.9659C72.2895 18.125 71.8742 17.0531 71.8742 15.75C71.8742 14.6288 72.179 13.6629 72.7887 12.8523C73.4059 12.0417 74.2709 11.4167 75.3834 10.9773C76.5037 10.5379 77.8144 10.3182 79.3156 10.3182C81.5332 10.3182 83.2783 10.7841 84.5509 11.7159C85.8311 12.6477 86.5779 13.9167 86.7913 15.5227Z" fill="#228BE6"/>
<path d="M98.6309 10.5455V14.1818H88.0575V10.5455H98.6309ZM90.458 6.36366H95.3274V22.6364C95.3274 23.0834 95.396 23.4318 95.5332 23.6818C95.6704 23.9243 95.8609 24.0947 96.1047 24.1932C96.3562 24.2917 96.6458 24.3409 96.9735 24.3409C97.2021 24.3409 97.4307 24.322 97.6593 24.2841C97.8879 24.2387 98.0632 24.2046 98.1851 24.1818L98.951 27.7841C98.7071 27.8599 98.3642 27.947 97.9222 28.0455C97.4802 28.1515 96.943 28.2159 96.3105 28.2387C95.1369 28.2841 94.1082 28.1288 93.2242 27.7728C92.3478 27.4167 91.6658 26.8637 91.1781 26.1137C90.6904 25.3637 90.4503 24.4167 90.458 23.2728V6.36366Z" fill="#228BE6"/>
<path d="M107.118 28.2841C105.785 28.2841 104.577 27.9432 103.495 27.2614C102.42 26.572 101.567 25.5606 100.934 24.2273C100.31 22.8864 99.9971 21.2424 99.9971 19.2955C99.9971 17.2955 100.321 15.6326 100.969 14.3068C101.616 12.9735 102.478 11.9773 103.552 11.3182C104.634 10.6515 105.819 10.3182 107.107 10.3182C108.09 10.3182 108.909 10.4849 109.565 10.8182C110.228 11.144 110.761 11.5531 111.165 12.0455C111.576 12.5303 111.889 13.0076 112.102 13.4773H112.251V10.5455H117.109V28H112.308V25.2046H112.102C111.874 25.6894 111.55 26.1705 111.131 26.6478C110.719 27.1174 110.182 27.5076 109.519 27.8182C108.864 28.1288 108.063 28.2841 107.118 28.2841ZM108.662 24.4318C109.447 24.4318 110.11 24.2197 110.651 23.7955C111.199 23.3637 111.618 22.7614 111.908 21.9887C112.205 21.2159 112.354 20.3106 112.354 19.2727C112.354 18.2349 112.209 17.3334 111.919 16.5682C111.63 15.8031 111.211 15.2121 110.662 14.7955C110.113 14.3788 109.447 14.1705 108.662 14.1705C107.861 14.1705 107.187 14.3864 106.638 14.8182C106.09 15.25 105.674 15.8485 105.392 16.6137C105.11 17.3788 104.97 18.2652 104.97 19.2727C104.97 20.2879 105.11 21.1856 105.392 21.9659C105.682 22.7387 106.097 23.3447 106.638 23.7841C107.187 24.2159 107.861 24.4318 108.662 24.4318Z" fill="#228BE6"/>
<path d="M134.755 15.5227L130.297 15.7955C130.221 15.4167 130.057 15.0758 129.806 14.7727C129.554 14.4621 129.223 14.2159 128.811 14.0341C128.407 13.8447 127.924 13.75 127.36 13.75C126.605 13.75 125.969 13.9091 125.451 14.2273C124.933 14.5379 124.673 14.9546 124.673 15.4773C124.673 15.894 124.841 16.2462 125.176 16.5341C125.512 16.822 126.087 17.0531 126.902 17.2273L130.08 17.8637C131.787 18.2121 133.06 18.7727 133.898 19.5455C134.736 20.3182 135.155 21.3334 135.155 22.5909C135.155 23.7349 134.816 24.7387 134.138 25.6023C133.467 26.4659 132.545 27.1402 131.372 27.625C130.206 28.1023 128.861 28.3409 127.337 28.3409C125.013 28.3409 123.161 27.8599 121.781 26.8978C120.41 25.9281 119.606 24.6099 119.37 22.9432L124.159 22.6932C124.304 23.3978 124.654 23.9356 125.211 24.3068C125.767 24.6705 126.48 24.8523 127.348 24.8523C128.202 24.8523 128.888 24.6894 129.406 24.3637C129.932 24.0303 130.198 23.6023 130.206 23.0796C130.198 22.6402 130.012 22.2803 129.646 22C129.28 21.7121 128.716 21.4924 127.954 21.3409L124.913 20.7387C123.199 20.3977 121.922 19.8068 121.084 18.9659C120.254 18.125 119.838 17.0531 119.838 15.75C119.838 14.6288 120.143 13.6629 120.753 12.8523C121.37 12.0417 122.235 11.4167 123.347 10.9773C124.468 10.5379 125.778 10.3182 127.28 10.3182C129.497 10.3182 131.242 10.7841 132.515 11.7159C133.795 12.6477 134.542 13.9167 134.755 15.5227Z" fill="#228BE6"/>
<path d="M141.668 22.9773L141.68 17.1705H142.388L148.012 10.5455H153.602L146.046 19.3182H144.892L141.668 22.9773ZM137.256 28V4.72729H142.126V28H137.256ZM148.23 28L143.063 20.3977L146.309 16.9773L153.934 28H148.23Z" fill="#228BE6"/>
</svg>
